<svg width="3000" height="2651" viewBox="0 0 3000 2651" fill="none" xmlns="http://www.w3.org/2000/svg">
<path d="M2682 1840.33L2724 1937.93C2724 1937.93 2432 1937.93 2290 1937.93C2202 2131.12 2034 2501.58 2034 2501.58L2066 2577.26L2338 1981.74H2742L2780 2079.34H2410L2384 2135.1H2802L2838 2226.72H2344L2149.86 2650.95H1952.87C1796.87 2278.51 1612 1812.45 1448 1434.03H1106C1014 1599.34 878.001 1742.74 750.001 1884.15C560 2101.25 444 2374.11 370 2650.95H246C346 2206.81 590 1900.08 892.001 1577.43H778.001C442 1892.12 260 2206.81 142 2650.95H0L1022 0H1980L2088 282.822H1952L1922 346.556H2114L2150 442.158H1878L1856 491.95H2170L2206 585.56H1810L1504 1256.76L1542 1342.41L1860 649.295H2230L2262 734.938H1938L1912 792.697H2284L2320 888.299H1866C1842 940.083 1646 1376.27 1596 1477.84L1628 1555.52L1910 940.083H2338L2374 1033.69H1982L1684 1686.97L1714 1758.67L2020 1091.45H2396L2432 1185.06H2090L2066 1234.85H2452L2490 1332.45H2022L1770 1886.14L1804 1967.8L2070 1388.22H2512L2550 1487.8H2138L1860 2097.26L1890 2168.96L2176 1543.57H2570L2606 1635.19H2248L2224 1690.95H2626L2662 1784.56H2180L1944 2300.42L1978 2378.09L2224 1840.33H2682Z" fill="#BFFF00"/>
<path d="M1172 1517.68H1374L1416 1605.31H1260C940.002 1961.83 724.002 2164.98 606.002 2650.95H482.002C602.002 2109.21 864.002 1931.95 1172 1517.68Z" fill="#BFFF00"/>
<path d="M836.001 2650.95H716.001C788.001 2278.5 1036 1961.82 1304 1702.9H1462C1144 2011.61 954.001 2202.82 834.001 2650.95H836.001Z" fill="#BFFF00"/>
<path d="M2974 2581.24L3000 2650.95H2403.53L2498 2437.84H2918L2950 2521.49H2578L2552 2581.24H2974Z" fill="#BFFF00"/>
<path d="M2460 2374.11L2326.2 2650.95H2222.38L2390 2286.47H2860L2894 2374.11H2460Z" fill="#BFFF00"/>
<path d="M1224 2111.2L1268 2222.74C1164 2350.2 1078.06 2650.95 1078.06 2650.95H945.508C1007.51 2465.72 1072 2248.63 1224 2111.2Z" fill="#BFFF00"/>
</svg>
